<?xml version="1.0" encoding="UTF-8"?>
<svg id="Layer_2" xmlns="http://www.w3.org/2000/svg" version="1.1" viewBox="0 0 108 108">
  <!-- Generator: Adobe Illustrator 29.5.0, SVG Export Plug-In . SVG Version: 2.1.0 Build 137)  -->
  <defs>
    <style>
      .st0 {
        fill: #fff;
      }
    </style>
  </defs>
  <g>
    <path d="M42.59,50.6c-.33.68-.76,1.35-.95,2.1-.74,2.83-.7,18.84-.32,22.2.27,2.4,2,3.68,4.3,3.91,2.74.27,15.91.39,18.1-.2,1.45-.39,2.75-1.89,2.98-3.37.44-2.9.38-20.01-.28-22.54-.2-.74-.62-1.42-.95-2.1-.94-.21-3.86.36-4.4-.4-1.39-1.97,3.99-1.64,4.86-1.49,1.57.27,2.56,4.03,2.68,5.41.43,5.03.53,16.22,0,21.14-.23,2.1-1.79,4.18-3.77,4.94-2.12.81-16.54.74-19.46.48-3.19-.29-5.61-2.42-5.92-5.66-.37-3.85-.49-19.68.38-22.89.3-1.12,1.18-3.24,2.42-3.42,2-.29,13.96-.34,15.83,0,.9.16,1.25.9.62,1.62l-16.11.27Z"/>
    <g>
      <path d="M69.97,20.73c1.58.45,2.14,3.52,1.43,4.72-.87,1.47-7.21,1.5-8.9,2.31-.8.52-1.84,4.76-2.49,5.78,1.59.22,2.61,1.19,3.46,2.45.21.31.36,1.2.52,1.34s1.49.36,2.03.71c1.89,1.19,2.16,4.18.46,5.64,3.96,2.88,5.69,6.73,5.98,11.56.26,4.4.55,19.6-.82,23.07-1.35,3.42-4.83,5.79-8.46,6.1-3.73.32-18.26.42-21.24-.69-3.34-1.25-5.75-4.45-6.23-7.96-.59-4.37-.6-20.41.43-24.43.75-2.91,2.64-5.4,4.91-7.3-1.8-1.6-1.94-4.71.3-6.04.86-.51,2.51-.52,2.71-.65.09-.06.34-1.08.51-1.35.88-1.34,2.05-2.34,3.72-2.5.4-4.85,3.19-4.69,6.72-2.56,1.57-3.96,1.93-7.6,6.62-8.87l7.2-1.33h1.12ZM69.84,24.46l-.44-1.85c-3.41,1.06-8.65.23-10.63,3.79-.27.49-2.29,5.56-2.33,5.9-.07.64.48.9.58,1.48.15.08.85-.18.99-.33,1.08-1.17,1.61-6.07,3.31-7.23,1.38-.94,8.24-1.43,8.51-1.76ZM54.65,36.02c2.55-1.51-2.53-5.3-3.84-4.58-1.03,1.85-.25,6.4,2.47,5.94-.26-.84-2.67-3.43-1-3.92,1.22-.36,1.87,1.81,2.37,2.56ZM49.54,37.39l-.87-2.12c-1.19.25-2.22.91-2.61,2.12h3.49ZM62,37.39c-.95-2.76-4.86-2.76-5.73,0h5.73ZM43.41,39.29c-2.57.38-2.55,3.23.22,3.57,3.95.48,16.08.47,20.05,0,2.78-.33,2.85-3.25,0-3.6-3.64-.44-16.73-.49-20.26.03ZM43.53,44.76c-3.17,1.69-5.56,5.3-5.93,8.88s-.46,20.75.39,23.46c.97,3.12,3.95,5.13,7.14,5.43s17.38.4,20.05-.49c2.89-.96,5-3.75,5.29-6.78.5-5.11.48-16.4,0-21.52-.35-3.61-2.76-7.4-6.05-9.01l-20.89.02Z"/>
      <path class="st0" d="M43.41,39.29c3.53-.52,16.63-.47,20.26-.03,2.85.34,2.78,3.27,0,3.6-3.97.47-16.09.48-20.05,0-2.77-.34-2.78-3.19-.22-3.57Z"/>
      <path class="st0" d="M69.84,24.46c-.28.34-7.13.82-8.51,1.76-1.7,1.16-2.23,6.06-3.31,7.23-.14.15-.84.41-.99.33-.1-.58-.65-.84-.58-1.48.03-.33,2.06-5.41,2.33-5.9,1.97-3.57,7.22-2.74,10.63-3.79l.44,1.85Z"/>
      <path class="st0" d="M54.65,36.02c-.5-.75-1.15-2.92-2.37-2.56-1.67.5.74,3.09,1,3.92-2.72.46-3.5-4.1-2.47-5.94,1.31-.72,6.39,3.06,3.84,4.58Z"/>
      <path class="st0" d="M62,37.39h-5.73c.87-2.76,4.78-2.76,5.73,0Z"/>
      <path class="st0" d="M49.54,37.39h-3.49c.39-1.21,1.43-1.86,2.61-2.12l.87,2.12Z"/>
    </g>
  </g>
  <g>
    <path d="M59.79,63.48l-9.61-1.3c-.17-.02-.27-.2-.2-.36h0c.05-.11.17-.17.29-.16l9.78,1.32c.06-.06-.08-.35-.26-.7-2.51-4.63-9.78-8.51-9.78-8.51-.33-.44.13-.8.59-.69,0,0,8.17,4.39,10.18,9.13l.92,2.17.39,1.88.21,1.95c.04.41.05.82,0,1.23l-.13,1.28-.88-.42c.06-.05.16-1.58.16-1.58-.01-.85-.16-1.04-.16-1.04l-12.75-1.47c-.14-.02-.24-.14-.22-.28h0c.03-.19.2-.32.39-.3l12.57,1.57s-.1-.93-.2-1.44c-.04-.21-.32-1.66-.51-2.11"/>
    <circle cx="51.13" cy="58.44" r="1.05"/>
    <circle cx="49.26" cy="61.6" r="1.24"/>
    <circle cx="60.66" cy="63.15" r="1.24"/>
    <circle cx="47.61" cy="65.66" r="1.33"/>
    <circle cx="61.78" cy="67.57" r="1.33"/>
    <circle cx="46.68" cy="70.15" r="1.8"/>
    <circle cx="61.04" cy="71.8" r="1.8"/>
    <circle cx="53.96" cy="55.69" r=".89"/>
  </g>
</svg>